<svg xmlns="http://www.w3.org/2000/svg" width="194" height="63.861" viewBox="0 0 194 63.861"><defs><style>.a{fill:#fff;}</style></defs><g transform="translate(-786.319 -398.924)"><path class="a" d="M1083.549,503.284l-2.682,8.25-2.682-8.25H977.675v8.756h90.914l12.278,31.485,12.269-31.485h30.025l5.2-8.756Z" transform="translate(-148.045 -80.739)"/><path class="a" d="M818.89,503.284H791.524l-5.2,8.756h32.618a14.489,14.489,0,0,1-.047-8.756" transform="translate(0 -80.74)"/><path class="a" d="M1327.265,414.457l-2.844-8.746h-19.192v8.746Z" transform="translate(-401.462 -5.25)"/><path class="a" d="M923.694,400.46a28.75,28.75,0,0,0-18.543,0,28.389,28.389,0,0,0-12.7,8.746H936.4a28.388,28.388,0,0,0-12.7-8.746" transform="translate(-82.11)"/><path class="a" d="M1305.229,454.472v8.757h25.628l-2.847-8.757Z" transform="translate(-401.462 -42.976)"/><path class="a" d="M1451.586,454.472l-2.847,8.757h25.626v-8.757Z" transform="translate(-512.49 -42.976)"/><path class="a" d="M895.641,455.407a14.3,14.3,0,0,1,10.988,5.147l11.922-6.08H871.678a27.593,27.593,0,0,0-3.87,8.757h15.075a14.341,14.341,0,0,1,12.758-7.824" transform="translate(-63.045 -42.976)"/><rect class="a" width="12.81" height="8.756" transform="translate(903.767 433.591)"/><path class="a" d="M895.749,559.778a14.346,14.346,0,0,1-12.7-7.69H867.947a27.567,27.567,0,0,0,3.925,8.756H919.06a27.566,27.566,0,0,0,3.925-8.756H908.444a14.345,14.345,0,0,1-12.7,7.69" transform="translate(-63.153 -118.497)"/><rect class="a" width="12.81" height="8.756" transform="translate(903.767 444.637)"/><path class="a" d="M905.933,609.649a28.615,28.615,0,0,0,30.717-8.756H892.915a28.4,28.4,0,0,0,13.018,8.756" transform="translate(-82.469 -156.256)"/><path class="a" d="M1467.452,405.71l-2.844,8.746h22.034V405.71Z" transform="translate(-524.768 -5.25)"/><rect class="a" width="12.81" height="8.756" transform="translate(949.065 433.591)"/><rect class="a" width="12.81" height="8.756" transform="translate(949.065 444.637)"/><path class="a" d="M1159.448,414.456a13.372,13.372,0,0,0-12.565-8.746h-22.139v8.746Z" transform="translate(-261.827 -5.25)"/><rect class="a" width="12.811" height="8.757" transform="translate(862.917 411.497)"/><rect class="a" width="12.811" height="8.756" transform="translate(862.917 433.591)"/><path class="a" d="M1124.744,600.893v8.756h22.83a15.42,15.42,0,0,0,14.019-8.756Z" transform="translate(-261.827 -156.256)"/><path class="a" d="M1223.46,454.472h-16.772v.124a4.832,4.832,0,0,1,2.987,8.633h12.282a12.991,12.991,0,0,0,1.5-8.757" transform="translate(-325.224 -42.975)"/><path class="a" d="M1233.143,552.088h-13.508c.009.012.016.026.025.038a4.82,4.82,0,0,1-3.036,8.565l-.032,0,0,0v.152h16.9a14.1,14.1,0,0,0-.344-8.756" transform="translate(-332.883 -118.497)"/><path class="a" d="M1585.905,620.024a1.878,1.878,0,1,0,1.878,1.877,1.88,1.88,0,0,0-1.878-1.877m0,4.133a2.256,2.256,0,1,1,2.256-2.256,2.258,2.258,0,0,1-2.256,2.256" transform="translate(-616.865 -170.764)"/><path class="a" d="M1590.474,625.775a.25.25,0,0,0,.278-.269c0-.165-.061-.263-.33-.263h-.181v.532Zm-.767-.99h.761a1.13,1.13,0,0,1,.424.052.635.635,0,0,1,.4.636.665.665,0,0,1-.327.6v.006a1.315,1.315,0,0,1,.082.132l.425.764h-.6l-.388-.737h-.251v.737h-.535Z" transform="translate(-621.552 -174.74)"/></g></svg>