<?xml version="1.0" standalone="no"?>
<!DOCTYPE svg PUBLIC "-//W3C//DTD SVG 20010904//EN"
 "http://www.w3.org/TR/2001/REC-SVG-20010904/DTD/svg10.dtd">
<svg version="1.0" xmlns="http://www.w3.org/2000/svg"
 width="226.000000pt" height="84.000000pt" viewBox="0 0 226.000000 84.000000"
 preserveAspectRatio="xMidYMid meet">

<g transform="translate(0.000000,84.000000) scale(0.100000,-0.100000)"
fill="#000000" stroke="none">
<path d="M0 420 l0 -420 1130 0 1130 0 0 420 0 420 -1130 0 -1130 0 0 -420z
m728 290 c48 -22 112 -68 112 -81 0 -5 -99 -9 -220 -9 -121 0 -220 4 -220 9 0
13 64 59 112 81 58 26 158 26 216 0z m466 -4 c37 -15 76 -53 76 -73 0 -11 -34
-13 -172 -11 l-173 3 -3 33 c-6 61 -4 62 123 62 76 0 127 -5 149 -14z m349
-30 c8 -25 13 -47 9 -50 -3 -3 -54 -6 -114 -6 l-108 0 0 50 0 50 99 0 99 0 15
-44z m377 -6 l0 -50 -108 0 c-60 0 -111 3 -114 6 -4 3 1 25 9 50 l15 44 99 0
99 0 0 -50z m-1070 -65 c0 -3 -26 -18 -58 -34 l-58 -29 -27 20 c-60 44 -149
32 -195 -27 -18 -23 -27 -25 -97 -25 -85 0 -85 1 -48 73 l14 27 234 0 c129 0
235 -2 235 -5z m205 -45 l0 -45 -65 0 -65 0 -3 33 c-6 58 1 63 70 60 l63 -3 0
-45z m225 16 c0 -61 -6 -66 -76 -66 -63 0 -64 1 -53 21 9 18 7 27 -10 50 l-22
29 81 0 80 0 0 -34z m290 9 c5 -14 13 -37 16 -50 l6 -25 -131 0 -131 0 0 50 0
50 115 0 c115 0 116 0 125 -25z m350 -25 l0 -50 -131 0 -131 0 6 25 c20 78 13
75 141 75 l115 0 0 -50z m-1435 -110 l0 -50 -162 0 c-90 0 -163 3 -163 6 0 3
12 25 26 50 l26 44 136 0 137 0 0 -50z m1127 9 l12 -42 14 42 14 41 224 0
c123 0 224 -3 224 -7 0 -3 -11 -26 -25 -49 l-26 -43 -151 -3 -151 -3 -58 -149
c-32 -81 -60 -150 -62 -153 -3 -2 -32 65 -65 149 l-59 153 -457 3 -456 2 0 50
0 50 505 0 504 0 13 -41z m-1100 -94 c56 -72 176 -71 223 1 14 22 23 24 85 24
38 0 71 -4 74 -8 2 -4 -4 -27 -14 -50 l-19 -42 -241 0 -241 0 -19 42 c-10 23
-16 46 -14 50 3 4 37 8 76 8 63 0 72 -3 90 -25z m546 -27 l3 -48 -70 0 -71 0
0 43 c0 24 3 47 7 51 4 4 34 6 68 4 l60 -3 3 -47z m248 28 c3 -13 4 -35 2 -47
-3 -23 -7 -24 -88 -27 l-85 -3 23 21 c18 17 22 28 17 51 l-7 29 66 0 c61 0 66
-2 72 -24z m159 -26 l0 -45 -67 -3 -68 -3 0 44 c0 24 3 47 7 51 4 4 34 6 68 4
l60 -3 0 -45z m453 -3 l3 -48 -68 3 -68 3 -3 33 c-6 58 1 63 70 60 l63 -3 3
-48z m-1083 -66 c7 -12 -48 -54 -105 -80 -60 -27 -159 -28 -218 -1 -54 25
-113 70 -106 81 7 12 421 12 429 0z m455 -4 c0 -18 -49 -64 -83 -76 -16 -6
-87 -11 -158 -11 l-129 0 0 43 c0 24 3 47 7 50 3 4 87 7 185 7 140 0 178 -3
178 -13z m175 -37 l0 -45 -67 -3 -68 -3 0 44 c0 24 3 47 7 51 4 4 34 6 68 4
l60 -3 0 -45z m453 -3 l3 -48 -68 3 -68 3 -3 33 c-6 58 1 63 70 60 l63 -3 3
-48z m89 -13 c3 -8 1 -20 -6 -27 -14 -14 -47 15 -37 32 10 16 36 13 43 -5z"/>
</g>
</svg>
